<mxfile host="app.diagrams.net" modified="2024-05-13T14:06:04.757Z" agent="Mozilla/5.0 (Windows NT 10.0; Win64; x64) AppleWebKit/537.36 (KHTML, like Gecko) Chrome/124.0.0.0 Safari/537.36" etag="eCSjHto3A3H5P6F_SoCj" version="24.4.0" type="device">
  <diagram name="Page-1" id="FvrJpyVeMuBUbTzabAHd">
    <mxGraphModel dx="1389" dy="914" grid="0" gridSize="10" guides="1" tooltips="1" connect="1" arrows="1" fold="1" page="0" pageScale="1" pageWidth="827" pageHeight="1169" math="0" shadow="0">
      <root>
        <mxCell id="0" />
        <mxCell id="1" parent="0" />
        <mxCell id="1GYy96CdfNUdV8bdzsSR-17" style="edgeStyle=orthogonalEdgeStyle;rounded=0;orthogonalLoop=1;jettySize=auto;html=1;entryX=0.5;entryY=0;entryDx=0;entryDy=0;exitX=1;exitY=0.5;exitDx=0;exitDy=0;" edge="1" parent="1" source="1GYy96CdfNUdV8bdzsSR-1" target="1GYy96CdfNUdV8bdzsSR-3">
          <mxGeometry relative="1" as="geometry" />
        </mxCell>
        <mxCell id="1GYy96CdfNUdV8bdzsSR-28" style="edgeStyle=orthogonalEdgeStyle;rounded=0;orthogonalLoop=1;jettySize=auto;html=1;startArrow=classic;startFill=1;dashed=1;dashPattern=8 8;" edge="1" parent="1" source="1GYy96CdfNUdV8bdzsSR-1">
          <mxGeometry relative="1" as="geometry">
            <mxPoint x="-66" y="221" as="targetPoint" />
          </mxGeometry>
        </mxCell>
        <mxCell id="1GYy96CdfNUdV8bdzsSR-1" value="Requirement&lt;div&gt;Analisys&lt;/div&gt;" style="rounded=1;whiteSpace=wrap;html=1;fillColor=#fff2cc;strokeColor=#d6b656;" vertex="1" parent="1">
          <mxGeometry x="-126" y="-49" width="120" height="60" as="geometry" />
        </mxCell>
        <mxCell id="1GYy96CdfNUdV8bdzsSR-29" style="edgeStyle=orthogonalEdgeStyle;rounded=0;orthogonalLoop=1;jettySize=auto;html=1;startArrow=classic;startFill=1;dashed=1;dashPattern=8 8;" edge="1" parent="1" source="1GYy96CdfNUdV8bdzsSR-3">
          <mxGeometry relative="1" as="geometry">
            <mxPoint x="54" y="220.48275862068976" as="targetPoint" />
          </mxGeometry>
        </mxCell>
        <mxCell id="1GYy96CdfNUdV8bdzsSR-3" value="Design" style="rounded=1;whiteSpace=wrap;html=1;fillColor=#dae8fc;strokeColor=#6c8ebf;" vertex="1" parent="1">
          <mxGeometry x="-6" y="11" width="120" height="60" as="geometry" />
        </mxCell>
        <mxCell id="1GYy96CdfNUdV8bdzsSR-30" style="edgeStyle=orthogonalEdgeStyle;rounded=0;orthogonalLoop=1;jettySize=auto;html=1;startArrow=classic;startFill=1;dashed=1;dashPattern=8 8;" edge="1" parent="1" source="1GYy96CdfNUdV8bdzsSR-5">
          <mxGeometry relative="1" as="geometry">
            <mxPoint x="174" y="220.48275862068976" as="targetPoint" />
          </mxGeometry>
        </mxCell>
        <mxCell id="1GYy96CdfNUdV8bdzsSR-5" value="Implementation&lt;div&gt;&amp;amp; Unit Testing&lt;/div&gt;" style="rounded=1;whiteSpace=wrap;html=1;fillColor=#f8cecc;strokeColor=#b85450;" vertex="1" parent="1">
          <mxGeometry x="114" y="71" width="120" height="60" as="geometry" />
        </mxCell>
        <mxCell id="1GYy96CdfNUdV8bdzsSR-20" style="edgeStyle=orthogonalEdgeStyle;rounded=0;orthogonalLoop=1;jettySize=auto;html=1;exitX=1;exitY=0.5;exitDx=0;exitDy=0;" edge="1" parent="1" source="1GYy96CdfNUdV8bdzsSR-7" target="1GYy96CdfNUdV8bdzsSR-9">
          <mxGeometry relative="1" as="geometry" />
        </mxCell>
        <mxCell id="1GYy96CdfNUdV8bdzsSR-31" style="edgeStyle=orthogonalEdgeStyle;rounded=0;orthogonalLoop=1;jettySize=auto;html=1;startArrow=classic;startFill=1;dashed=1;dashPattern=8 8;" edge="1" parent="1" source="1GYy96CdfNUdV8bdzsSR-7">
          <mxGeometry relative="1" as="geometry">
            <mxPoint x="294" y="220.48275862068976" as="targetPoint" />
          </mxGeometry>
        </mxCell>
        <mxCell id="1GYy96CdfNUdV8bdzsSR-7" value="Testing" style="rounded=1;whiteSpace=wrap;html=1;fillColor=#ffe6cc;strokeColor=#d79b00;" vertex="1" parent="1">
          <mxGeometry x="234" y="131" width="120" height="60" as="geometry" />
        </mxCell>
        <mxCell id="1GYy96CdfNUdV8bdzsSR-27" style="edgeStyle=orthogonalEdgeStyle;rounded=0;orthogonalLoop=1;jettySize=auto;html=1;endArrow=none;endFill=0;dashed=1;dashPattern=8 8;" edge="1" parent="1" source="1GYy96CdfNUdV8bdzsSR-9">
          <mxGeometry relative="1" as="geometry">
            <mxPoint x="-66" y="221" as="targetPoint" />
          </mxGeometry>
        </mxCell>
        <mxCell id="1GYy96CdfNUdV8bdzsSR-9" value="Operation and&lt;div&gt;Maintenance&lt;/div&gt;" style="rounded=1;whiteSpace=wrap;html=1;fillColor=#e1d5e7;strokeColor=#9673a6;" vertex="1" parent="1">
          <mxGeometry x="354" y="191" width="120" height="60" as="geometry" />
        </mxCell>
        <mxCell id="1GYy96CdfNUdV8bdzsSR-18" style="edgeStyle=orthogonalEdgeStyle;rounded=0;orthogonalLoop=1;jettySize=auto;html=1;entryX=0.575;entryY=0.05;entryDx=0;entryDy=0;entryPerimeter=0;exitX=1;exitY=0.5;exitDx=0;exitDy=0;" edge="1" parent="1" source="1GYy96CdfNUdV8bdzsSR-3" target="1GYy96CdfNUdV8bdzsSR-5">
          <mxGeometry relative="1" as="geometry" />
        </mxCell>
        <mxCell id="1GYy96CdfNUdV8bdzsSR-19" style="edgeStyle=orthogonalEdgeStyle;rounded=0;orthogonalLoop=1;jettySize=auto;html=1;entryX=0.575;entryY=0.033;entryDx=0;entryDy=0;entryPerimeter=0;exitX=1;exitY=0.5;exitDx=0;exitDy=0;" edge="1" parent="1" source="1GYy96CdfNUdV8bdzsSR-5" target="1GYy96CdfNUdV8bdzsSR-7">
          <mxGeometry relative="1" as="geometry" />
        </mxCell>
        <mxCell id="1GYy96CdfNUdV8bdzsSR-32" value="Feedback" style="text;html=1;align=center;verticalAlign=middle;whiteSpace=wrap;rounded=0;rotation=-90;" vertex="1" parent="1">
          <mxGeometry x="-108" y="109" width="60" height="30" as="geometry" />
        </mxCell>
      </root>
    </mxGraphModel>
  </diagram>
</mxfile>
